<?xml version="1.0" standalone="no"?>
<!DOCTYPE svg PUBLIC "-//W3C//DTD SVG 20010904//EN"
 "http://www.w3.org/TR/2001/REC-SVG-20010904/DTD/svg10.dtd">
<svg version="1.0" xmlns="http://www.w3.org/2000/svg"
 width="321.000000pt" height="373.000000pt" viewBox="0 0 321.000000 373.000000"
 preserveAspectRatio="xMidYMid meet">

<g transform="translate(0.000000,373.000000) scale(0.100000,-0.100000)"
fill="#000000" stroke="none">
<path d="M1134 2786 c-3 -9 -14 -16 -23 -16 -10 0 -18 -7 -18 -15 0 -9 6 -14
14 -11 7 3 13 1 13 -4 0 -6 9 -10 20 -10 11 0 19 -5 18 -11 -2 -6 3 -14 10
-16 9 -4 18 19 10 30 -1 1 4 12 11 25 7 14 8 22 1 22 -5 0 -10 -6 -10 -12 -1
-7 -9 -2 -20 11 -17 19 -21 21 -26 7z"/>
<path d="M942 2670 c-13 -5 -29 -24 -37 -42 l-14 -33 82 -38 c45 -21 91 -40
102 -41 11 -2 35 -10 52 -20 18 -9 35 -16 38 -16 3 0 19 -7 36 -15 16 -9 39
-13 50 -10 19 6 19 7 -3 38 -35 52 -100 106 -179 149 -56 31 -97 40 -127 28z"/>
<path d="M734 2599 c-3 -5 4 -9 15 -9 30 0 189 -58 258 -95 35 -18 60 -28 56
-22 -3 5 -51 31 -107 58 -108 51 -212 83 -222 68z"/>
<path d="M1110 2436 c0 -2 8 -10 18 -17 15 -13 16 -12 3 4 -13 16 -21 21 -21
13z"/>
<path d="M1249 2273 c-1 -13 -7 -45 -13 -69 -4 -13 -2 -25 2 -28 5 -3 1 -52
-9 -108 -47 -262 -47 -264 -11 -289 12 -8 19 -19 15 -22 -3 -4 0 -7 8 -8 120
-9 132 -21 19 -19 -47 1 -92 1 -101 1 -12 -1 -20 -23 -34 -93 -9 -51 -21 -99
-25 -107 -8 -16 -21 118 -15 163 7 51 -42 -152 -61 -251 -10 -51 -15 -95 -13
-97 3 -3 32 -12 64 -21 67 -17 475 -42 518 -31 27 6 27 7 27 96 0 49 4 91 9
94 5 3 28 -20 51 -52 83 -113 170 -151 233 -102 23 18 27 19 35 5 7 -13 16
-14 51 -6 24 5 48 14 53 19 6 6 3 42 -8 100 -15 78 -21 92 -43 104 -52 27
-224 161 -303 236 -45 42 -124 131 -176 197 -53 66 -119 146 -146 178 -54 61
-125 123 -127 110z"/>
<path d="M925 818 c-13 -65 -23 -93 -38 -103 -25 -17 -40 -10 -28 13 4 9 11
34 15 54 l7 37 -53 -18 c-76 -26 -87 -32 -49 -25 21 4 31 2 27 -4 -3 -5 1 -15
9 -22 8 -7 15 -20 15 -30 0 -20 25 -45 65 -62 17 -7 50 -25 75 -40 52 -31 130
-52 250 -68 47 -6 91 -16 97 -22 7 -6 13 -7 13 -4 0 4 7 1 15 -8 8 -8 15 -18
15 -21 0 -7 -84 -3 -250 10 -69 6 -73 5 -50 -9 14 -8 48 -18 76 -23 68 -13
217 -8 222 6 2 6 19 11 37 11 18 0 36 6 38 13 4 10 6 9 6 0 1 -7 6 -13 12 -13
6 0 9 7 5 15 -3 8 0 16 7 16 7 1 -4 5 -23 8 l-35 7 50 7 c78 11 138 27 163 43
19 13 23 22 20 57 -2 27 -7 41 -16 39 -6 -1 -11 1 -11 5 5 33 -3 83 -12 77 -8
-4 -8 0 0 15 10 18 9 20 -5 14 -12 -4 -15 -3 -10 5 4 7 19 13 34 14 15 0 -52
5 -148 9 -202 8 -343 28 -452 62 l-76 24 -17 -89z"/>
<path d="M2195 788 c4 -24 12 -52 18 -63 27 -50 7 -90 -64 -129 -19 -11 -29
-21 -21 -23 17 -7 44 -61 36 -74 -7 -12 35 -9 51 4 6 4 49 31 97 60 48 28 102
64 119 80 17 15 34 27 38 27 9 0 61 60 61 70 0 4 -15 15 -32 24 l-33 17 34 -5
c19 -4 47 -13 64 -21 21 -11 26 -11 18 -1 -16 19 -78 35 -224 56 -181 27 -170
29 -162 -22z m259 -7 c4 -5 -3 -7 -14 -4 -23 6 -26 13 -6 13 8 0 17 -4 20 -9z"/>
<path d="M380 580 c0 -31 34 -58 92 -74 54 -16 731 -144 1003 -191 83 -14 193
-27 245 -30 79 -4 87 -3 45 5 -28 5 -66 16 -85 24 l-35 15 54 1 c30 0 52 2 49
5 -3 3 -50 13 -104 21 -221 35 -1182 214 -1221 228 -41 14 -43 14 -43 -4z"/>
<path d="M1483 503 c3 -5 31 -9 63 -11 32 -2 57 -1 54 1 -9 8 -121 17 -117 10z"/>
</g>
</svg>
